# Blender 5.1.1
# www.blender.org
o Plane
v -76.525513 0.000000 76.525513
v 76.525513 0.000000 76.525513
v -76.525513 0.000000 -76.525513
v 76.525513 0.000000 -76.525513
vn -0.0000 -0.0000 -0.0000
vt 1.000000 0.000000
vt 0.000000 1.000000
vt 0.000000 0.000000
vt 1.000000 1.000000
s 0
f 2/1/1 3/2/1 1/3/1
f 2/1/1 4/4/1 3/2/1
o Cube
v -76.525513 0.000000 -18.132179
v -76.525513 10.932556 -18.132179
v -76.525513 0.000000 -76.525513
v -76.525513 10.932556 -76.525513
v -1.966568 0.000000 -76.525513
v -1.966568 10.932556 -76.525513
v -1.966568 0.000000 -28.132177
v -11.966568 0.000000 -18.132179
v -2.727772 0.000000 -24.305344
v -4.895500 0.000000 -21.061111
v -8.139734 0.000000 -18.893383
v -11.966568 10.932556 -18.132179
v -1.966568 10.932556 -28.132177
v -8.139734 10.932556 -18.893383
v -4.895500 10.932556 -21.061111
v -2.727772 10.932556 -24.305344
vn -1.0000 -0.0000 -0.0000
vn -0.0000 -0.0000 -1.0000
vn 0.1951 -0.0000 0.9808
vn 0.5556 -0.0000 0.8315
vn 0.8315 -0.0000 0.5556
vn 0.9808 -0.0000 0.1951
vn -0.0000 -1.0000 -0.0000
vn 1.0000 -0.0000 -0.0000
vn -0.0000 -0.0000 1.0000
vn -0.0000 1.0000 -0.0000
vt 0.625000 0.000000
vt 0.375000 0.250000
vt 0.375000 0.000000
vt 0.625000 0.250000
vt 0.375000 0.500000
vt 0.348372 0.803256
vt 0.641438 0.780033
vt 0.651628 0.803256
vt 0.358562 0.780033
vt 0.632799 0.739060
vt 0.367201 0.739060
vt 0.627027 0.680830
vt 0.372973 0.680830
vt 0.625000 0.637950
vt 0.125000 0.750000
vt 0.625000 0.500000
vt 0.375000 0.637950
vt 0.375000 1.000000
vt 0.125000 0.500000
vt 0.625000 1.000000
vt 0.875000 0.500000
vt 0.875000 0.750000
s 0
f 6/5/2 7/6/2 5/7/2
f 8/8/3 9/9/3 7/6/3
f 12/10/4 18/11/4 16/12/4
f 15/13/5 19/14/5 18/11/5
f 14/15/6 20/16/6 19/14/6
f 13/17/7 17/18/7 20/16/7
f 13/17/8 15/13/8 5/19/8
f 10/20/9 11/21/9 9/9/9
f 16/12/10 5/22/10 12/10/10
f 16/12/11 19/14/11 17/18/11
f 6/5/2 8/8/2 7/6/2
f 8/8/3 10/20/3 9/9/3
f 12/10/4 15/13/4 18/11/4
f 15/13/5 14/15/5 19/14/5
f 14/15/6 13/17/6 20/16/6
f 13/17/7 11/21/7 17/18/7
f 5/19/8 7/23/8 9/9/8
f 9/9/8 11/21/8 13/17/8
f 13/17/8 14/15/8 15/13/8
f 15/13/8 12/10/8 5/19/8
f 5/19/8 9/9/8 13/17/8
f 10/20/9 17/18/9 11/21/9
f 16/12/10 6/24/10 5/22/10
f 17/18/11 10/20/11 8/25/11
f 8/25/11 6/26/11 16/12/11
f 16/12/11 18/11/11 19/14/11
f 19/14/11 20/16/11 17/18/11
f 17/18/11 8/25/11 16/12/11
o Cube.006
v 44.449333 0.000000 -76.525513
v 44.449333 20.932556 -76.525513
v 61.525513 0.000000 -76.525513
v 61.525513 20.932556 -76.525513
v 44.449333 0.000000 -18.132179
v 44.449333 20.932556 -18.132179
v 61.525513 0.000000 -18.132179
v 61.525513 20.932556 -18.132179
vn -0.0000 -0.0000 -1.0000
vn 1.0000 -0.0000 -0.0000
vn -0.0000 -0.0000 1.0000
vn -1.0000 -0.0000 -0.0000
vn -0.0000 -1.0000 -0.0000
vn -0.0000 1.0000 -0.0000
vt 0.625000 0.000000
vt 0.375000 0.250000
vt 0.375000 0.000000
vt 0.625000 0.250000
vt 0.375000 0.500000
vt 0.625000 0.500000
vt 0.375000 0.750000
vt 0.625000 0.750000
vt 0.375000 1.000000
vt 0.125000 0.750000
vt 0.125000 0.500000
vt 0.875000 0.500000
vt 0.625000 1.000000
vt 0.875000 0.750000
s 0
f 22/27/12 23/28/12 21/29/12
f 24/30/13 27/31/13 23/28/13
f 28/32/14 25/33/14 27/31/14
f 26/34/15 21/35/15 25/33/15
f 27/31/16 21/36/16 23/37/16
f 24/38/17 26/34/17 28/32/17
f 22/27/12 24/30/12 23/28/12
f 24/30/13 28/32/13 27/31/13
f 28/32/14 26/34/14 25/33/14
f 26/34/15 22/39/15 21/35/15
f 27/31/16 25/33/16 21/36/16
f 24/38/17 22/40/17 26/34/17
o Cube.007
v -76.525513 0.000000 61.525513
v -76.525513 20.932556 61.525513
v -76.525513 0.000000 28.283697
v -76.525513 20.932556 28.283697
v 76.525513 0.000000 61.525513
v 76.525513 20.932556 61.525513
v 76.525513 0.000000 28.283697
v 76.525513 20.932556 28.283697
vn -1.0000 -0.0000 -0.0000
vn -0.0000 -0.0000 -1.0000
vn 1.0000 -0.0000 -0.0000
vn -0.0000 -0.0000 1.0000
vn -0.0000 -1.0000 -0.0000
vn -0.0000 1.0000 -0.0000
vt 0.625000 0.000000
vt 0.375000 0.250000
vt 0.375000 0.000000
vt 0.625000 0.250000
vt 0.375000 0.500000
vt 0.625000 0.500000
vt 0.375000 0.750000
vt 0.625000 0.750000
vt 0.375000 1.000000
vt 0.125000 0.750000
vt 0.125000 0.500000
vt 0.875000 0.500000
vt 0.625000 1.000000
vt 0.875000 0.750000
s 0
f 30/41/18 31/42/18 29/43/18
f 32/44/19 35/45/19 31/42/19
f 36/46/20 33/47/20 35/45/20
f 34/48/21 29/49/21 33/47/21
f 35/45/22 29/50/22 31/51/22
f 32/52/23 34/48/23 36/46/23
f 30/41/18 32/44/18 31/42/18
f 32/44/19 36/46/19 35/45/19
f 36/46/20 34/48/20 33/47/20
f 34/48/21 30/53/21 29/49/21
f 35/45/22 33/47/22 29/50/22
f 32/52/23 30/54/23 34/48/23
o Cube.008
v -76.525513 0.000000 13.283696
v -76.525513 0.249478 13.283696
v 76.525513 0.000000 13.283696
v 76.525513 0.249478 13.283696
v -76.525513 0.000000 -3.132176
v -76.525513 0.249478 -3.132176
v 76.525513 0.000000 -3.132176
v 76.525513 0.249478 -3.132176
v 29.449310 0.000000 -76.525513
v 29.449310 0.249478 -76.525513
v 13.033428 0.000000 -76.525513
v 13.033428 0.249478 -76.525513
v 3.033432 0.000000 -3.132176
v 13.033432 0.000000 -13.132175
v 6.860268 0.000000 -3.893382
v 10.104500 0.000000 -6.061109
v 12.272228 0.000000 -9.305342
v 13.033432 0.249478 -13.132175
v 3.033432 0.249478 -3.132176
v 12.272228 0.249478 -9.305342
v 10.104500 0.249478 -6.061109
v 6.860268 0.249478 -3.893382
v 29.449310 0.000000 -13.132175
v 39.449310 0.000000 -3.132177
v 30.210518 0.000000 -9.305342
v 32.378242 0.000000 -6.061109
v 35.622475 0.000000 -3.893382
v 39.449310 0.249478 -3.132177
v 29.449310 0.249478 -13.132176
v 35.622475 0.249478 -3.893382
v 32.378242 0.249478 -6.061110
v 30.210518 0.249478 -9.305343
vn -0.0000 -0.0000 1.0000
vn 1.0000 -0.0000 -0.0000
vn -0.0000 -0.0000 -1.0000
vn -1.0000 -0.0000 -0.0000
vn -0.1951 -0.0000 -0.9808
vn -0.5556 -0.0000 -0.8315
vn -0.8315 -0.0000 -0.5556
vn -0.9808 -0.0000 -0.1951
vn 0.9808 -0.0000 -0.1951
vn 0.8315 -0.0000 -0.5556
vn 0.5556 -0.0000 -0.8315
vn 0.1951 -0.0000 -0.9808
vn -0.0000 -1.0000 -0.0000
vn -0.0000 1.0000 -0.0000
vt 0.625000 0.750000
vt 0.375000 1.000000
vt 0.375000 0.750000
vt 0.375000 0.500000
vt 0.625000 1.000000
vt 0.375000 0.250000
vt 0.069786 0.027915
vt 0.018693 -0.000101
vt 0.041872 0.027915
vt -0.021641 -0.039962
vt -0.012984 -0.039962
vt 0.040763 0.024406
vt 0.024458 0.024406
vt 0.085158 0.068126
vt 0.051095 0.068126
vt 0.625000 0.250000
vt 0.375000 0.965937
vt 0.628930 0.987139
vt 0.377358 0.987139
vt 0.633387 1.011554
vt 0.380032 1.011554
vt 0.376517 0.941809
vt 0.627528 0.941809
vt 0.375000 0.893789
vt 0.625000 0.893789
vt 0.625000 0.965937
vt 0.625000 0.500000
vt 0.031155 -0.000101
s 0
f 40/55/24 37/56/24 39/57/24
f 43/58/25 40/55/25 39/57/25
f 47/58/26 46/55/26 45/57/26
f 38/59/27 41/60/27 37/56/27
f 55/61/28 51/62/28 49/63/28
f 51/62/29 57/64/29 52/65/29
f 52/65/30 56/66/30 53/67/30
f 53/67/31 54/68/31 50/69/31
f 55/61/26 41/60/26 42/70/26
f 54/68/27 47/58/27 50/69/27
f 59/71/32 68/72/32 61/73/32
f 61/73/33 67/74/33 62/75/33
f 67/74/34 63/76/34 62/75/34
f 66/77/35 60/78/35 63/76/35
f 50/69/36 59/71/36 61/73/36
f 64/79/26 43/58/26 60/78/26
f 46/55/25 59/71/25 45/57/25
f 68/72/37 65/80/37 54/68/37
f 40/55/24 38/59/24 37/56/24
f 43/58/25 44/81/25 40/55/25
f 47/58/26 48/81/26 46/55/26
f 38/59/27 42/70/27 41/60/27
f 55/61/28 58/82/28 51/62/28
f 51/62/29 58/82/29 57/64/29
f 52/65/30 57/64/30 56/66/30
f 53/67/31 56/66/31 54/68/31
f 55/61/26 49/63/26 41/60/26
f 54/68/27 48/81/27 47/58/27
f 59/71/32 65/80/32 68/72/32
f 61/73/33 68/72/33 67/74/33
f 67/74/34 66/77/34 63/76/34
f 66/77/35 64/79/35 60/78/35
f 39/57/36 37/56/36 41/60/36
f 39/57/36 41/60/36 49/63/36
f 60/78/36 43/58/36 39/57/36
f 63/76/36 60/78/36 39/57/36
f 39/57/36 49/63/36 51/62/36
f 39/57/36 51/62/36 52/65/36
f 63/76/36 39/57/36 52/65/36
f 63/76/36 52/65/36 53/67/36
f 62/75/36 63/76/36 53/67/36
f 50/69/36 47/58/36 45/57/36
f 62/75/36 53/67/36 50/69/36
f 61/73/36 62/75/36 50/69/36
f 50/69/36 45/57/36 59/71/36
f 64/79/26 44/81/26 43/58/26
f 46/55/25 65/80/25 59/71/25
f 42/70/37 38/59/37 40/55/37
f 40/55/37 44/81/37 64/79/37
f 40/55/37 64/79/37 66/77/37
f 55/61/37 42/70/37 40/55/37
f 58/82/37 55/61/37 40/55/37
f 58/82/37 40/55/37 66/77/37
f 57/64/37 58/82/37 66/77/37
f 57/64/37 66/77/37 67/74/37
f 56/66/37 57/64/37 67/74/37
f 56/66/37 67/74/37 68/72/37
f 46/55/37 48/81/37 54/68/37
f 54/68/37 56/66/37 68/72/37
f 65/80/37 46/55/37 54/68/37
