# Blender 5.1.1
# www.blender.org
o Cube.018
v -14.646025 0.000015 31.792068
v -14.646025 77.035164 31.792068
v -14.646025 0.000015 -31.792068
v -14.646025 77.035164 -31.792068
v 14.646025 0.000015 -31.792068
v 14.646025 77.035164 -31.792068
v 14.646025 0.000015 31.792068
v 14.646025 77.035164 31.792068
vn -1.0000 -0.0000 -0.0000
vn -0.0000 -0.0000 1.0000
vn -0.0000 1.0000 -0.0000
vn -0.0000 -1.0000 -0.0000
vn -0.0000 -0.0000 -1.0000
vn 1.0000 -0.0000 -0.0000
vt 0.410026 0.495898
vt 0.004102 0.004102
vt 0.410026 0.004102
vt 0.191104 0.995898
vt 0.004102 0.504102
vt 0.191104 0.504102
vt 0.394515 0.910026
vt 0.581516 0.504102
vt 0.581516 0.910026
vt 0.589721 0.910026
vt 0.776722 0.504102
vt 0.776722 0.910026
vt 0.386310 0.995898
vt 0.199309 0.504102
vt 0.386310 0.504102
vt 0.418231 0.004102
vt 0.824154 0.495898
vt 0.418231 0.495898
vt 0.004102 0.495898
vt 0.004102 0.995898
vt 0.394515 0.504102
vt 0.589721 0.504102
vt 0.199308 0.995898
vt 0.824154 0.004102
s 0
f 2/1/1 3/2/1 1/3/1
f 8/4/2 1/5/2 7/6/2
f 4/7/3 8/8/3 6/9/3
f 5/10/4 1/11/4 3/12/4
f 4/13/5 5/14/5 3/15/5
f 7/16/6 6/17/6 8/18/6
f 2/1/1 4/19/1 3/2/1
f 8/4/2 2/20/2 1/5/2
f 4/7/3 2/21/3 8/8/3
f 5/10/4 7/22/4 1/11/4
f 4/13/5 6/23/5 5/14/5
f 7/16/6 5/24/6 6/17/6
