# Blender 5.1.1
# www.blender.org
o Cube.002
v -191.792023 0.318671 -91.792061
v -191.792023 0.000025 -91.792061
v -191.792023 0.318673 -108.207924
v -191.792023 0.000026 -108.207924
v 191.792053 0.318671 -91.792061
v 191.792053 0.000025 -91.792061
v 191.792053 0.318673 -108.207962
v 191.792053 0.000026 -108.207962
v 8.207950 0.318646 191.792023
v 8.207950 -0.000000 191.792023
v -8.207913 0.318646 191.792023
v -8.207913 -0.000000 191.792023
v 8.207932 0.318680 -191.792068
v 8.207932 0.000034 -191.792068
v -8.207969 0.318680 -191.792068
v -8.207969 0.000034 -191.792068
v -191.792023 0.318662 8.207941
v -191.792023 0.000016 8.207941
v -191.792023 0.318664 -8.207922
v -191.792023 0.000017 -8.207922
v 191.792053 0.318662 8.207941
v 191.792053 0.000016 8.207941
v 191.792053 0.318664 -8.207960
v 191.792053 0.000017 -8.207960
v -191.792023 0.318654 108.207932
v -191.792023 0.000007 108.207932
v -191.792023 0.318655 91.792068
v -191.792023 0.000009 91.792068
v 191.792053 0.318654 108.207932
v 191.792053 0.000007 108.207932
v 191.792053 0.318655 91.792030
v 191.792053 0.000009 91.792030
v 108.207947 0.318646 191.792023
v 108.207947 -0.000000 191.792023
v 91.792084 0.318646 191.792023
v 91.792084 -0.000000 191.792023
v 108.207932 0.318680 -191.792068
v 108.207932 0.000034 -191.792068
v 91.792030 0.318680 -191.792068
v 91.792030 0.000034 -191.792068
v -108.207916 0.318646 191.792023
v -108.207916 -0.000000 191.792023
v -91.792068 0.318680 -191.792068
v -91.792068 0.000034 -191.792068
v -108.207970 0.318680 -191.792068
v -108.207970 0.000034 -191.792068
v -108.207932 0.318654 108.207932
v -108.207932 0.000007 108.207932
v -108.207939 0.318655 91.792068
v -108.207939 0.000009 91.792068
v -108.207939 0.318662 8.207941
v -108.207939 0.000016 8.207941
v -91.792053 0.318671 -91.792061
v -91.792053 0.000025 -91.792061
v -108.207939 0.318664 -8.207922
v -108.207939 0.000017 -8.207922
v -108.207939 0.318671 -91.792068
v -108.207939 0.000025 -91.792068
v -108.207939 0.318673 -108.207924
v -108.207939 0.000026 -108.207924
v -91.792068 0.318673 -108.207932
v -91.792068 0.000026 -108.207932
v -91.792053 0.318664 -8.207922
v -91.792053 0.000017 -8.207922
v -91.792053 0.318662 8.207932
v -91.792053 0.000016 8.207932
v -91.792053 0.318655 91.792068
v -91.792053 0.000009 91.792068
v -91.792053 0.318654 108.207932
v -91.792053 0.000007 108.207932
v -91.792053 0.318646 191.792023
v -91.792053 -0.000000 191.792023
v -8.207954 0.318671 -91.792061
v -8.207954 0.000025 -91.792061
v -8.207973 0.318673 -108.207932
v -8.207973 0.000026 -108.207932
v -8.207954 0.318664 -8.207922
v -8.207954 0.000017 -8.207922
v -8.207954 0.318662 8.207932
v -8.207954 0.000016 8.207932
v -8.207954 0.318655 91.792068
v -8.207954 0.000009 91.792068
v -8.207955 0.318654 108.207932
v -8.207955 0.000007 108.207932
v 8.207936 0.318673 -108.207932
v 8.207936 0.000026 -108.207932
v 8.207946 0.318654 108.207932
v 8.207946 0.000007 108.207932
v 91.792068 0.318654 108.207932
v 91.792068 0.000007 108.207932
v 108.207932 0.318654 108.207932
v 108.207932 0.000007 108.207932
v 108.207924 0.318655 91.792030
v 108.207924 0.000009 91.792030
v 8.207945 0.000016 8.207932
v 8.207945 0.318662 8.207932
v 91.792068 0.318655 91.792030
v 91.792068 0.000009 91.792030
v 8.207945 0.318655 91.792068
v 8.207945 0.000009 91.792068
v 8.207944 0.318671 -91.792061
v 8.207944 0.000025 -91.792061
v 8.207944 0.318664 -8.207922
v 8.207944 0.000017 -8.207922
v 108.207916 0.318671 -91.792061
v 108.207916 0.000025 -91.792061
v 108.207916 0.318673 -108.207962
v 108.207916 0.000026 -108.207962
v 108.207916 0.318662 8.207941
v 108.207916 0.000016 8.207941
v 108.207916 0.318664 -8.207960
v 108.207916 0.000017 -8.207960
v 91.792061 0.318671 -91.792053
v 91.792061 0.000025 -91.792053
v 91.792061 0.318673 -108.207947
v 91.792061 0.000026 -108.207947
v 91.792061 0.318662 8.207941
v 91.792061 0.000016 8.207941
v 91.792061 0.318664 -8.207960
v 91.792061 0.000017 -8.207960
vn -1.0000 -0.0000 -0.0000
vn 1.0000 -0.0000 -0.0000
vn -0.0000 -0.0000 -1.0000
vn -0.0000 -0.0000 1.0000
vn -0.0000 1.0000 -0.0000
vn -0.0000 -1.0000 -0.0000
vt 0.536420 4.694298
vt 0.530514 4.998580
vt 0.530514 4.694298
vt 0.477967 4.694299
vt 0.472060 4.998581
vt 0.472060 4.694299
vt 0.618194 3.127583
vt 0.624100 1.578284
vt 0.624100 3.127583
vt 0.434126 3.136302
vt 0.428220 4.685614
vt 0.428220 3.136302
vt 0.545127 4.998579
vt 0.551033 4.694298
vt 0.551033 4.998579
vt 0.434127 4.694321
vt 0.428220 4.998603
vt 0.428220 4.694321
vt 0.521807 4.694299
vt 0.515900 4.998580
vt 0.515900 4.694299
vt 0.492580 4.694299
vt 0.486673 4.998581
vt 0.486673 4.694299
vt 0.618194 4.685590
vt 0.624100 3.136291
vt 0.624100 4.685590
vt 0.632807 1.569576
vt 0.638713 0.020276
vt 0.638713 1.569576
vt 0.588967 4.998579
vt 0.594873 4.694298
vt 0.594873 4.998579
vt 0.507193 4.694299
vt 0.501287 4.998581
vt 0.501287 4.694299
vt 0.632807 3.127583
vt 0.638713 1.578284
vt 0.638713 3.127583
vt 0.559740 3.127583
vt 0.565647 1.578284
vt 0.565647 3.127583
vt 0.559740 4.998579
vt 0.565647 4.694297
vt 0.565647 4.998579
vt 0.448739 4.694321
vt 0.442833 4.998603
vt 0.442833 4.694321
vt 0.609486 1.569576
vt 0.603580 0.020276
vt 0.609486 0.020276
vt 0.574354 4.998579
vt 0.580260 4.694297
vt 0.580260 4.998579
vt 0.463354 4.694299
vt 0.457447 4.998581
vt 0.457447 4.694299
vt 0.448739 1.578284
vt 0.442833 3.127595
vt 0.442833 1.578284
vt 0.521807 1.578283
vt 0.515900 3.127584
vt 0.515900 1.578283
vt 0.472060 4.685592
vt 0.477967 3.136291
vt 0.477967 4.685592
vt 0.477967 1.578284
vt 0.472060 3.127584
vt 0.472060 1.578284
vt 0.457446 1.578284
vt 0.463353 3.127585
vt 0.457446 3.127585
vt 0.486673 1.569577
vt 0.492580 0.020277
vt 0.492580 1.569577
vt 0.486673 3.127584
vt 0.492580 1.578283
vt 0.492580 3.127584
vt 0.603580 3.127583
vt 0.609487 1.578283
vt 0.609487 3.127583
vt 0.559740 4.685591
vt 0.565647 3.136291
vt 0.565647 4.685591
vt 0.574354 1.569576
vt 0.580260 0.020276
vt 0.580260 1.569576
vt 0.574354 3.127583
vt 0.580260 1.578284
vt 0.580260 3.127583
vt 0.574354 4.685591
vt 0.580260 3.136291
vt 0.580260 4.685591
vt 0.588967 1.569576
vt 0.594873 0.020276
vt 0.594873 1.569576
vt 0.588967 3.127583
vt 0.594873 1.578284
vt 0.594873 3.127583
vt 0.457446 3.136291
vt 0.463353 4.685592
vt 0.457446 4.685592
vt 0.486673 4.685592
vt 0.492580 3.136292
vt 0.492580 4.685592
vt 0.501286 1.569577
vt 0.507193 0.020277
vt 0.507193 1.569577
vt 0.477966 1.569577
vt 0.472060 0.020276
vt 0.477966 0.020276
vt 0.588967 4.685591
vt 0.594873 3.136291
vt 0.594873 4.685591
vt 0.521806 0.020276
vt 0.515900 1.569576
vt 0.515900 0.020276
vt 0.434127 0.020277
vt 0.428220 1.569577
vt 0.428220 0.020277
vt 0.448739 0.020277
vt 0.442833 1.569577
vt 0.442833 0.020277
vt 0.501286 3.127584
vt 0.507193 1.578283
vt 0.507193 3.127584
vt 0.551033 3.136291
vt 0.545127 4.685591
vt 0.545127 3.136291
vt 0.609487 3.136291
vt 0.603580 4.685591
vt 0.603580 3.136291
vt 0.515900 4.685591
vt 0.521807 3.136291
vt 0.521807 4.685591
vt 0.536420 0.020277
vt 0.530514 1.569577
vt 0.530514 0.020277
vt 0.428220 3.127595
vt 0.434126 1.578284
vt 0.434127 3.127595
vt 0.501287 3.136291
vt 0.507193 4.685592
vt 0.501287 4.685592
vt 0.463353 0.020277
vt 0.457446 1.569577
vt 0.457446 0.020277
vt 0.559740 0.020276
vt 0.565646 1.569576
vt 0.559739 1.569576
vt 0.618194 0.020276
vt 0.624100 1.569576
vt 0.618194 1.569576
vt 0.632807 3.136290
vt 0.638713 4.685590
vt 0.632807 4.685590
vt 0.653327 3.136290
vt 0.647420 4.685578
vt 0.647420 3.136290
vt 0.653326 1.569576
vt 0.647420 0.020276
vt 0.653326 0.020276
vt 0.442834 4.685613
vt 0.448740 3.136302
vt 0.448740 4.685613
vt 0.530514 1.578284
vt 0.536420 3.127584
vt 0.530514 3.127584
vt 0.536420 4.685591
vt 0.530514 3.136291
vt 0.536420 3.136291
vt 0.545126 0.020276
vt 0.551033 1.569576
vt 0.545127 1.569576
vt 0.545127 1.578284
vt 0.551033 3.127584
vt 0.545127 3.127584
vt 0.647420 3.127572
vt 0.653326 1.578284
vt 0.653326 3.127572
vt 0.014719 0.014347
vt 0.319001 0.318628
vt 0.014719 0.318628
vt 0.014719 0.014346
vt 0.319001 0.318628
vt 0.014719 0.318628
vt 0.653323 0.020278
vt 0.349041 1.569579
vt 0.349041 0.020278
vt 0.349044 1.569577
vt 0.349044 0.020276
vt 0.653326 0.020278
vt 0.349044 1.569578
vt 0.349044 0.020278
vt 0.653325 0.020279
vt 0.349044 1.569579
vt 0.349044 0.020279
vt 0.653325 1.569579
vt 0.349043 0.020278
vt 0.653324 0.020278
vt 0.349043 1.569579
vt 0.653324 0.020278
vt 0.653325 1.569579
vt 0.653324 1.569578
vt 0.349043 0.020278
vt 0.653325 0.020279
vt 0.349044 1.569579
vt 0.653326 0.020278
vt 0.653326 1.569579
vt 0.349045 0.020277
vt 0.653326 1.569577
vt 0.349045 1.569577
vt 0.653326 1.569579
vt 0.349044 0.020279
vt 0.653326 0.020279
vt 0.653323 1.569579
vt 0.349042 0.020279
vt 0.653323 0.020279
vt 0.681023 0.020277
vt 0.985305 1.569578
vt 0.681023 1.569578
vt 0.681023 0.020277
vt 0.985305 1.569578
vt 0.681023 1.569578
vt 0.985305 1.569578
vt 0.681023 1.569578
vt 0.985305 1.569578
vt 0.681024 0.020278
vt 0.985305 0.020277
vt 0.985304 1.569578
vt 0.681022 1.569578
vt 0.681023 0.020277
vt 0.985305 1.569578
vt 0.681023 1.569578
vt 0.985305 0.020277
vt 0.681023 1.569577
vt 0.681023 0.020277
vt 0.681023 1.569577
vt 0.985304 0.020277
vt 0.985304 1.569577
vt 0.985304 0.020277
vt 0.985304 1.569577
vt 0.985305 0.020277
vt 0.681023 1.569577
vt 0.985305 0.020277
vt 0.681023 1.569577
vt 0.985304 0.020277
vt 0.681023 1.569577
vt 0.681023 0.020277
vt 0.319001 0.318628
vt 0.014719 0.014346
vt 0.319001 0.014346
vt 0.319001 0.318627
vt 0.014719 0.014346
vt 0.319001 0.014346
vt 0.319001 0.014347
vt 0.014719 0.014347
vt 0.014719 0.014346
vt 0.319001 0.318628
vt 0.014719 0.318628
vt 0.985305 1.569577
vt 0.985304 0.020277
vt 0.985305 1.569578
vt 0.681023 1.569578
vt 0.985305 0.020277
vt 0.681023 1.569579
vt 0.681023 1.569579
vt 0.985305 0.020277
vt 0.985305 1.569579
vt 0.681023 1.569578
vt 0.985305 0.020277
vt 0.985305 0.020277
vt 0.985305 1.569577
vt 0.985305 0.020277
vt 0.985304 1.569578
vt 0.985304 0.020277
vt 0.014719 0.014346
vt 0.319001 0.318628
vt 0.014719 0.318628
vt 0.681023 1.569577
vt 0.985305 0.020277
vt 0.985305 1.569577
vt 0.319001 0.014346
vt 0.014719 0.318628
vt 0.014719 0.014346
vt 0.985304 1.569577
vt 0.681023 0.020277
vt 0.319001 0.014346
vt 0.014719 0.318628
vt 0.014719 0.014346
vt 0.681023 1.569577
vt 0.985305 1.569577
vt 0.349044 0.020277
vt 0.653326 1.569579
vt 0.349044 1.569578
vt 0.349045 0.020277
vt 0.653326 0.324558
vt 0.349045 0.324558
vt 0.653326 0.020277
vt 0.349044 1.569578
vt 0.349044 0.020277
vt 0.349045 0.324558
vt 0.653326 0.020276
vt 0.653326 0.324558
vt 0.349044 0.020277
vt 0.653326 1.569578
vt 0.349044 1.569578
vt 0.349045 0.020277
vt 0.653327 0.324558
vt 0.349045 1.569577
vt 0.349045 0.020277
vt 0.349044 0.020277
vt 0.653326 1.569578
vt 0.349044 1.569578
vt 0.349045 0.020276
vt 0.653326 0.020276
vt 0.349044 1.569578
vt 0.653326 1.569578
vt 0.349045 0.020276
vt 0.653326 0.324558
vt 0.349044 1.569578
vt 0.653327 0.324558
vt 0.349044 1.569577
vt 0.653325 1.569577
vt 0.653326 1.569577
vt 0.349045 0.324558
vt 0.349045 0.020276
vt 0.653326 1.569577
vt 0.349045 0.020277
vt 0.349045 0.324558
vt 0.349045 1.569577
vt 0.653326 1.569577
vt 0.349045 0.020277
vt 0.349045 0.324559
vt 0.349044 0.020277
vt 0.653326 1.569577
vt 0.349044 1.569578
vt 0.536420 4.998580
vt 0.477967 4.998581
vt 0.618194 1.578284
vt 0.434126 4.685614
vt 0.545127 4.694298
vt 0.434127 4.998603
vt 0.521807 4.998580
vt 0.492580 4.998581
vt 0.618194 3.136291
vt 0.632807 0.020276
vt 0.588967 4.694298
vt 0.507193 4.998581
vt 0.632807 1.578284
vt 0.559740 1.578284
vt 0.559740 4.694297
vt 0.448739 4.998603
vt 0.603580 1.569576
vt 0.574354 4.694297
vt 0.463354 4.998581
vt 0.448739 3.127595
vt 0.521807 3.127584
vt 0.472060 3.136291
vt 0.477967 3.127584
vt 0.463353 1.578284
vt 0.486673 0.020277
vt 0.486673 1.578283
vt 0.603580 1.578283
vt 0.559740 3.136291
vt 0.574354 0.020276
vt 0.574354 1.578284
vt 0.574354 3.136291
vt 0.588967 0.020276
vt 0.588967 1.578284
vt 0.463353 3.136291
vt 0.486673 3.136292
vt 0.501286 0.020277
vt 0.472060 1.569577
vt 0.588967 3.136291
vt 0.521807 1.569576
vt 0.434127 1.569577
vt 0.448739 1.569577
vt 0.501287 1.578283
vt 0.551033 4.685591
vt 0.609486 4.685591
vt 0.515900 3.136291
vt 0.536420 1.569577
vt 0.428220 1.578284
vt 0.507193 3.136291
vt 0.463353 1.569577
vt 0.565646 0.020276
vt 0.624100 0.020276
vt 0.638713 3.136290
vt 0.653327 4.685578
vt 0.647420 1.569576
vt 0.442834 3.136302
vt 0.536420 1.578284
vt 0.530514 4.685591
vt 0.551033 0.020276
vt 0.551033 1.578284
vt 0.647420 1.578284
vt 0.319001 0.014347
vt 0.319001 0.014346
vt 0.653326 1.569578
vt 0.349043 0.020278
vt 0.349044 0.020279
vt 0.349044 0.020278
vt 0.985305 0.020277
vt 0.985305 0.020277
vt 0.985304 0.020277
vt 0.985305 0.020278
vt 0.985304 1.569578
vt 0.985305 1.569577
vt 0.985304 1.569577
vt 0.014719 0.318628
vt 0.014719 0.318628
vt 0.319001 0.014346
vt 0.681023 1.569577
vt 0.985305 0.020277
vt 0.985305 1.569578
vt 0.985305 1.569578
vt 0.985305 1.569578
vt 0.681022 1.569577
vt 0.681023 1.569578
vt 0.319001 0.318628
vt 0.681023 1.569577
vt 0.319001 0.318628
vt 0.653327 0.020276
vt 0.653326 1.569579
vt 0.349045 0.020276
vt 0.653327 0.020276
vt 0.653326 1.569577
vt 0.349045 0.324558
vt 0.349044 0.020277
vt 0.653326 0.020276
vt 0.349044 0.020277
vt 0.653327 0.020276
vt 0.349044 0.020277
vt 0.349045 1.569577
vt 0.349045 0.020276
vt 0.349044 0.020277
s 1
f 4/1/1 1/2/1 3/3/1
f 6/4/2 7/5/2 5/6/2
f 3/7/3 60/8/3 4/9/3
f 2/10/4 57/11/4 1/12/4
f 12/13/4 9/14/4 11/15/4
f 14/16/3 15/17/3 13/18/3
f 20/19/1 17/20/1 19/21/1
f 22/22/2 23/23/2 21/24/2
f 19/25/3 56/26/3 20/27/3
f 18/28/4 51/29/4 17/30/4
f 28/31/1 25/32/1 27/33/1
f 30/34/2 31/35/2 29/36/2
f 27/37/3 50/38/3 28/39/3
f 26/40/4 47/41/4 25/42/4
f 36/43/4 33/44/4 35/45/4
f 38/46/3 39/47/3 37/48/3
f 92/49/2 33/50/2 34/51/2
f 42/52/4 71/53/4 41/54/4
f 44/55/3 45/56/3 43/57/3
f 48/58/1 41/59/1 47/60/1
f 49/61/1 52/62/1 50/63/1
f 53/64/2 64/65/2 54/66/2
f 55/67/1 58/68/1 56/69/1
f 45/70/1 60/71/1 59/72/1
f 43/73/2 62/74/2 44/75/2
f 65/76/2 68/77/2 66/78/2
f 69/79/2 72/80/2 70/81/2
f 70/82/4 83/83/4 69/84/4
f 67/85/3 82/86/3 68/87/3
f 66/88/4 79/89/4 65/90/4
f 61/91/3 76/92/3 62/93/3
f 63/94/3 78/95/3 64/96/3
f 54/97/4 73/98/4 53/99/4
f 15/100/1 76/101/1 75/102/1
f 13/103/2 86/104/2 14/105/2
f 80/106/1 81/107/1 79/108/1
f 78/109/1 73/110/1 74/111/1
f 11/112/1 84/113/1 12/114/1
f 24/115/3 111/116/3 23/117/3
f 8/118/3 107/119/3 7/120/3
f 21/121/4 110/122/4 22/123/4
f 101/124/2 104/125/2 102/126/2
f 32/127/3 93/128/3 31/129/3
f 10/130/2 87/131/2 9/132/2
f 88/133/4 89/134/4 87/135/4
f 29/136/4 92/137/4 30/138/4
f 35/139/1 90/140/1 36/141/1
f 99/142/2 95/143/2 96/144/2
f 5/145/4 106/146/4 6/147/4
f 107/148/2 38/149/2 37/150/2
f 111/151/2 106/152/2 105/153/2
f 93/154/2 110/155/2 109/156/2
f 40/157/1 115/158/1 39/159/1
f 120/160/1 113/161/1 114/162/1
f 97/163/1 118/164/1 98/165/1
f 115/166/3 86/167/3 85/168/3
f 114/169/4 101/170/4 102/171/4
f 119/172/3 104/173/3 103/174/3
f 118/175/4 96/176/4 95/177/4
f 98/178/3 99/179/3 97/180/3
f 103/181/5 79/182/5 96/183/5
f 85/184/5 73/185/5 101/186/5
f 6/187/6 108/188/6 8/189/6
f 22/162/6 112/190/6 24/191/6
f 30/192/6 94/193/6 32/194/6
f 100/195/6 90/196/6 88/197/6
f 120/198/6 95/199/6 104/200/6
f 114/201/6 86/202/6 116/203/6
f 76/204/6 54/205/6 62/200/6
f 64/196/6 80/206/6 66/198/6
f 68/207/6 84/208/6 70/209/6
f 50/210/6 26/211/6 28/212/6
f 56/213/6 18/214/6 20/215/6
f 60/216/6 2/217/6 4/218/6
f 107/219/5 5/220/5 7/221/5
f 111/222/5 21/223/5 23/224/5
f 93/222/5 29/225/5 31/226/5
f 89/227/5 99/228/5 87/229/5
f 103/219/5 117/230/5 119/231/5
f 85/232/5 113/233/5 115/234/5
f 53/235/5 75/236/5 61/237/5
f 77/238/5 65/239/5 79/240/5
f 81/236/5 69/241/5 83/242/5
f 25/243/5 49/244/5 27/219/5
f 17/245/5 55/246/5 19/237/5
f 1/247/5 59/248/5 3/249/5
f 83/250/5 99/251/5 81/252/5
f 57/253/5 61/254/5 59/255/5
f 55/256/5 65/183/5 63/257/5
f 67/258/5 47/259/5 69/260/5
f 69/261/5 41/249/5 71/262/5
f 49/249/5 65/263/5 51/264/5
f 63/265/5 57/266/5 55/249/5
f 45/267/5 61/268/5 43/269/5
f 15/270/5 85/271/5 13/223/5
f 103/272/5 73/264/5 77/249/5
f 99/272/5 79/270/5 81/249/5
f 87/273/5 11/249/5 9/274/5
f 91/275/5 35/237/5 33/276/5
f 93/277/5 89/278/5 91/279/5
f 117/280/5 93/281/5 109/282/5
f 119/283/5 109/284/5 111/285/5
f 105/286/5 119/287/5 111/241/5
f 115/288/5 105/289/5 107/290/5
f 39/291/5 107/235/5 37/292/5
f 62/293/6 46/294/6 44/295/6
f 62/296/6 58/297/6 60/298/6
f 56/299/6 54/300/6 64/301/6
f 56/302/6 66/303/6 52/304/6
f 52/305/6 68/306/6 50/307/6
f 48/308/6 68/309/6 70/298/6
f 42/299/6 70/310/6 72/311/6
f 86/312/6 16/313/6 14/314/6
f 74/304/6 86/315/6 102/316/6
f 102/317/6 78/299/6 74/318/6
f 104/319/6 80/320/6 78/298/6
f 95/321/6 82/299/6 80/318/6
f 100/319/6 84/322/6 82/298/6
f 12/323/6 88/299/6 10/324/6
f 36/212/6 92/299/6 34/325/6
f 94/316/6 90/326/6 98/327/6
f 94/328/6 118/329/6 110/299/6
f 112/330/6 118/316/6 120/304/6
f 120/331/6 106/299/6 112/332/6
f 116/333/6 106/304/6 114/334/6
f 40/335/6 108/336/6 116/337/6
f 4/1/1 2/338/1 1/2/1
f 6/4/2 8/339/2 7/5/2
f 3/7/3 59/340/3 60/8/3
f 2/10/4 58/341/4 57/11/4
f 12/13/4 10/342/4 9/14/4
f 14/16/3 16/343/3 15/17/3
f 20/19/1 18/344/1 17/20/1
f 22/22/2 24/345/2 23/23/2
f 19/25/3 55/346/3 56/26/3
f 18/28/4 52/347/4 51/29/4
f 28/31/1 26/348/1 25/32/1
f 30/34/2 32/349/2 31/35/2
f 27/37/3 49/350/3 50/38/3
f 26/40/4 48/351/4 47/41/4
f 36/43/4 34/352/4 33/44/4
f 38/46/3 40/353/3 39/47/3
f 92/49/2 91/354/2 33/50/2
f 42/52/4 72/355/4 71/53/4
f 44/55/3 46/356/3 45/56/3
f 48/58/1 42/357/1 41/59/1
f 49/61/1 51/358/1 52/62/1
f 53/64/2 63/359/2 64/65/2
f 55/67/1 57/360/1 58/68/1
f 45/70/1 46/361/1 60/71/1
f 43/73/2 61/362/2 62/74/2
f 65/76/2 67/363/2 68/77/2
f 69/79/2 71/364/2 72/80/2
f 70/82/4 84/365/4 83/83/4
f 67/85/3 81/366/3 82/86/3
f 66/88/4 80/367/4 79/89/4
f 61/91/3 75/368/3 76/92/3
f 63/94/3 77/369/3 78/95/3
f 54/97/4 74/370/4 73/98/4
f 15/100/1 16/371/1 76/101/1
f 13/103/2 85/372/2 86/104/2
f 80/106/1 82/373/1 81/107/1
f 78/109/1 77/374/1 73/110/1
f 11/112/1 83/375/1 84/113/1
f 24/115/3 112/376/3 111/116/3
f 8/118/3 108/377/3 107/119/3
f 21/121/4 109/378/4 110/122/4
f 101/124/2 103/379/2 104/125/2
f 32/127/3 94/380/3 93/128/3
f 10/130/2 88/381/2 87/131/2
f 88/133/4 90/382/4 89/134/4
f 29/136/4 91/383/4 92/137/4
f 35/139/1 89/384/1 90/140/1
f 99/142/2 100/385/2 95/143/2
f 5/145/4 105/386/4 106/146/4
f 107/148/2 108/387/2 38/149/2
f 111/151/2 112/388/2 106/152/2
f 93/154/2 94/389/2 110/155/2
f 40/157/1 116/390/1 115/158/1
f 120/160/1 119/391/1 113/161/1
f 97/163/1 117/392/1 118/164/1
f 115/166/3 116/393/3 86/167/3
f 114/169/4 113/394/4 101/170/4
f 119/172/3 120/395/3 104/173/3
f 118/175/4 117/396/4 96/176/4
f 98/178/3 100/397/3 99/179/3
f 103/181/5 77/398/5 79/182/5
f 85/184/5 75/399/5 73/185/5
f 6/187/6 106/216/6 108/188/6
f 22/162/6 110/325/6 112/190/6
f 30/192/6 92/400/6 94/193/6
f 100/195/6 98/209/6 90/196/6
f 120/198/6 118/201/6 95/199/6
f 114/201/6 102/401/6 86/202/6
f 76/204/6 74/201/6 54/205/6
f 64/196/6 78/402/6 80/206/6
f 68/207/6 82/403/6 84/208/6
f 50/210/6 48/299/6 26/211/6
f 56/213/6 52/207/6 18/214/6
f 60/216/6 58/201/6 2/217/6
f 107/219/5 105/404/5 5/220/5
f 111/222/5 109/405/5 21/223/5
f 93/222/5 91/405/5 29/225/5
f 89/227/5 97/264/5 99/228/5
f 103/219/5 96/406/5 117/230/5
f 85/232/5 101/407/5 113/233/5
f 53/235/5 73/408/5 75/236/5
f 77/238/5 63/219/5 65/239/5
f 81/236/5 67/237/5 69/241/5
f 25/243/5 47/282/5 49/244/5
f 17/245/5 51/409/5 55/246/5
f 1/247/5 57/410/5 59/248/5
f 83/250/5 87/411/5 99/251/5
f 57/253/5 53/412/5 61/254/5
f 55/256/5 51/182/5 65/183/5
f 67/258/5 49/413/5 47/259/5
f 69/261/5 47/414/5 41/249/5
f 49/249/5 67/415/5 65/263/5
f 63/265/5 53/416/5 57/266/5
f 45/267/5 59/249/5 61/268/5
f 15/270/5 75/249/5 85/271/5
f 103/272/5 101/417/5 73/264/5
f 99/272/5 96/418/5 79/270/5
f 87/273/5 83/419/5 11/249/5
f 91/275/5 89/420/5 35/237/5
f 93/277/5 97/255/5 89/278/5
f 117/280/5 97/237/5 93/281/5
f 119/283/5 117/421/5 109/284/5
f 105/286/5 113/422/5 119/287/5
f 115/288/5 113/423/5 105/289/5
f 39/291/5 115/237/5 107/235/5
f 62/293/6 60/299/6 46/294/6
f 62/296/6 54/424/6 58/297/6
f 56/299/6 58/425/6 54/300/6
f 56/302/6 64/426/6 66/303/6
f 52/305/6 66/299/6 68/306/6
f 48/308/6 50/427/6 68/309/6
f 42/299/6 48/428/6 70/310/6
f 86/312/6 76/299/6 16/313/6
f 74/304/6 76/429/6 86/315/6
f 102/317/6 104/430/6 78/299/6
f 104/319/6 95/431/6 80/320/6
f 95/321/6 100/432/6 82/299/6
f 100/319/6 88/433/6 84/322/6
f 12/323/6 84/335/6 88/299/6
f 36/212/6 90/434/6 92/299/6
f 94/316/6 92/304/6 90/326/6
f 94/328/6 98/435/6 118/329/6
f 112/330/6 110/436/6 118/316/6
f 120/331/6 114/437/6 106/299/6
f 116/333/6 108/316/6 106/304/6
f 40/335/6 38/299/6 108/336/6
