# Blender 5.1.1
# www.blender.org
o Cylinder
v 50.426537 0.000015 49.738628
v 50.426537 13.285892 50.193634
v 50.830879 0.000015 49.870007
v 50.563435 13.285892 50.238113
v 51.080776 0.000015 50.213963
v 50.648041 13.285892 50.354565
v 51.080776 0.000015 50.639111
v 50.648041 13.285892 50.498508
v 50.830879 0.000015 50.983067
v 50.563435 13.285892 50.614960
v 50.426537 0.000015 51.114445
v 50.426537 13.285892 50.659439
v 50.022194 0.000015 50.983067
v 50.289639 13.285892 50.614960
v 49.772297 0.000015 50.639111
v 50.205032 13.285892 50.498508
v 49.772297 0.000015 50.213963
v 50.205032 13.285892 50.354565
v 50.022194 0.000015 49.870007
v 50.289639 13.285892 50.238113
v 60.980240 17.651344 50.426537
v 60.980244 3.579735 50.426537
v 39.872829 17.651342 50.426537
v 39.872833 3.579734 50.426537
v 50.426537 17.651344 39.872833
v 50.426537 3.579736 39.872833
v 50.426537 17.651342 60.980240
v 50.426537 3.579734 60.980240
v 57.889133 17.651344 42.963943
v 57.889133 3.579735 42.963940
v 42.963940 17.651342 57.889133
v 42.963940 3.579734 57.889130
v 42.963940 17.651344 42.963943
v 42.963940 3.579735 42.963940
v 57.889133 17.651342 57.889133
v 57.889133 3.579734 57.889130
vn -0.0000 0.0342 -0.9994
vn 0.5874 0.0342 -0.8085
vn 0.9505 0.0342 -0.3088
vn 0.9505 0.0342 0.3088
vn 0.5874 0.0342 0.8085
vn -0.0000 0.0342 0.9994
vn -0.5874 0.0342 0.8085
vn -0.9505 0.0342 0.3088
vn -0.9505 0.0342 -0.3088
vn -0.0000 1.0000 -0.0000
vn -0.5874 0.0342 -0.8085
vn -0.0000 -1.0000 -0.0000
vn -0.0000 -0.0000 -1.0000
vn -1.0000 -0.0000 -0.0000
vn -0.7071 -0.0000 -0.7071
vn -0.7071 -0.0000 0.7071
vt 0.724719 0.003653
vt 0.721359 0.313992
vt 0.714796 0.003758
vt 0.704877 0.004073
vt 0.718001 0.314099
vt 0.694967 0.004598
vt 0.714646 0.314276
vt 0.685070 0.005332
vt 0.711295 0.314525
vt 0.675191 0.006275
vt 0.774247 0.006275
vt 0.738143 0.314525
vt 0.764368 0.005332
vt 0.754472 0.004598
vt 0.731437 0.314099
vt 0.744561 0.004073
vt 0.685532 0.368688
vt 0.675191 0.368688
vt 0.677166 0.362610
vt 0.728079 0.313992
vt 0.734643 0.003758
vt 0.681024 0.351199
vt 0.690462 0.322151
vt 0.705734 0.333246
vt 0.332116 0.003653
vt 0.003653 0.496347
vt 0.003653 0.003653
vt 0.003653 0.503653
vt 0.332116 0.996347
vt 0.003653 0.996347
vt 0.667884 0.503653
vt 0.339422 0.996347
vt 0.339422 0.503653
vt 0.339422 0.003653
vt 0.667884 0.496347
vt 0.339422 0.496347
vt 0.724719 0.313957
vt 0.707950 0.314844
vt 0.741488 0.314844
vt 0.734792 0.314276
vt 0.680361 0.361572
vt 0.683557 0.362610
vt 0.685532 0.365328
vt 0.683557 0.371407
vt 0.680361 0.372445
vt 0.677166 0.371407
vt 0.675191 0.365328
vt 0.705734 0.343170
vt 0.699901 0.351199
vt 0.690462 0.354265
vt 0.675191 0.343170
vt 0.675191 0.333246
vt 0.681024 0.325218
vt 0.699901 0.325218
vt 0.332116 0.496347
vt 0.332116 0.503653
vt 0.667884 0.996347
vt 0.667885 0.003653
s 1
f 1/1/1 4/2/2 3/3/2
f 4/2/2 5/4/3 3/3/2
f 6/5/3 7/6/4 5/4/3
f 8/7/4 9/8/5 7/6/4
f 10/9/5 11/10/6 9/8/5
f 11/11/6 14/12/7 13/13/7
f 14/12/7 15/14/8 13/13/7
f 15/14/8 18/15/9 17/16/9
f 18/17/10 10/18/10 6/19/10
f 17/16/9 20/20/11 19/21/11
f 20/20/11 1/1/1 19/21/11
f 7/22/12 15/23/12 19/24/12
s 0
f 22/25/13 23/26/13 21/27/13
f 25/28/14 28/29/14 27/30/14
f 30/31/15 31/32/15 29/33/15
f 33/34/16 36/35/16 35/36/16
s 1
f 1/1/1 2/37/1 4/2/2
f 4/2/2 6/5/3 5/4/3
f 6/5/3 8/7/4 7/6/4
f 8/7/4 10/9/5 9/8/5
f 10/9/5 12/38/6 11/10/6
f 11/11/6 12/39/6 14/12/7
f 14/12/7 16/40/8 15/14/8
f 15/14/8 16/40/8 18/15/9
f 6/19/10 4/41/10 2/42/10
f 2/42/10 20/43/10 18/17/10
f 18/17/10 16/44/10 14/45/10
f 14/45/10 12/46/10 10/18/10
f 10/18/10 8/47/10 6/19/10
f 6/19/10 2/42/10 18/17/10
f 18/17/10 14/45/10 10/18/10
f 17/16/9 18/15/9 20/20/11
f 20/20/11 2/37/1 1/1/1
f 19/24/12 1/48/12 3/49/12
f 3/49/12 5/50/12 7/22/12
f 7/22/12 9/51/12 11/52/12
f 11/52/12 13/53/12 15/23/12
f 15/23/12 17/54/12 19/24/12
f 19/24/12 3/49/12 7/22/12
f 7/22/12 11/52/12 15/23/12
s 0
f 22/25/13 24/55/13 23/26/13
f 25/28/14 26/56/14 28/29/14
f 30/31/15 32/57/15 31/32/15
f 33/34/16 34/58/16 36/35/16
