# Blender 5.1.1
# www.blender.org
o Cube.001
v -4.604836 0.313884 2.000000
v -4.604836 1.688055 2.000000
v -4.604836 0.313883 -2.000000
v -4.604836 1.688054 -2.000000
v 4.267855 0.313884 2.000000
v 4.267855 1.688055 2.000000
v 4.267855 0.313883 -2.000000
v 4.267855 1.688054 -2.000000
v -2.400262 1.688054 -2.000000
v -1.132735 2.788685 -2.000000
v 1.402320 2.788685 -2.000000
v 2.669847 1.688054 -2.000000
v 2.669847 1.688055 2.000000
v 1.402320 2.788686 2.000000
v -1.132735 2.788686 2.000000
v -2.400262 1.688055 2.000000
v -3.328762 0.313883 1.517191
v -3.328762 0.313883 2.000000
v -1.788762 0.313883 2.000000
v -1.788762 0.313883 1.517191
v 1.693033 0.313883 2.000000
v 1.693033 0.313883 1.517191
v 3.233033 0.313883 1.517191
v 3.233033 0.313883 2.000000
v -3.328762 0.313883 -2.000000
v -1.788762 0.313883 -1.524351
v -1.788762 0.313883 -2.000000
v -3.328762 0.313883 -1.524351
v 1.693033 0.313883 -2.000000
v 3.233033 0.313883 -2.000000
v 1.693033 0.313883 -1.524351
v 3.233033 0.313883 -1.524351
v 1.693033 0.661612 -1.524351
v 2.463033 1.431612 -1.524351
v 1.918561 1.206084 -1.524351
v 3.233033 0.661612 -1.524351
v 3.007506 1.206084 -1.524351
v 2.463033 1.431612 -2.000000
v 1.693033 0.661612 -2.000000
v 1.918561 1.206084 -2.000000
v 3.233033 0.661612 -2.000000
v 3.007506 1.206084 -2.000000
v -3.328762 0.661612 -1.524351
v -2.558762 1.431612 -1.524351
v -3.103234 1.206084 -1.524351
v 2.463033 1.431612 1.517190
v 1.693033 0.661611 1.517191
v 1.918561 1.206084 1.517190
v -1.788762 0.661612 -1.524351
v -2.014290 1.206084 -1.524351
v -2.558762 1.431612 1.517190
v -3.328762 0.661611 1.517191
v -3.103234 1.206084 1.517190
v 3.233033 0.661611 1.517191
v 3.007505 1.206084 1.517190
v -1.788762 0.661611 1.517191
v -2.014290 1.206084 1.517190
v -2.558762 1.431612 2.000000
v -1.788762 0.661611 2.000000
v -2.014290 1.206084 2.000000
v -3.328762 0.661611 2.000000
v -3.103234 1.206084 2.000000
v 2.463033 1.431612 2.000000
v 3.233033 0.661611 2.000000
v 3.007505 1.206084 2.000000
v 1.693033 0.661611 2.000000
v 1.918561 1.206084 2.000000
v -1.788762 0.661612 -2.000000
v -2.558762 1.431612 -2.000000
v -2.014290 1.206084 -2.000000
v -3.328762 0.661612 -2.000000
v -3.103234 1.206084 -2.000000
vn 1.0000 -0.0000 -0.0000
vn -0.0000 1.0000 -0.0000
vn -0.0000 -0.0000 1.0000
vn -1.0000 -0.0000 -0.0000
vn -0.6556 0.7551 -0.0000
vn -0.0000 -0.0000 -1.0000
vn 0.6556 0.7551 -0.0000
vn -0.0000 -1.0000 -0.0000
vn -0.9239 -0.3827 -0.0000
vn 0.3827 -0.9239 -0.0000
vn -0.3827 -0.9239 -0.0000
vn 0.9239 -0.3827 -0.0000
vt 0.625000 0.500000
vt 0.375000 0.750000
vt 0.375000 0.500000
vt 0.660714 0.750000
vt 0.625000 0.750000
vt 0.696429 0.750000
vt 0.803571 0.750000
vt 0.375000 0.000000
vt 0.625000 0.250000
vt 0.375000 0.250000
vt 0.767857 0.500000
vt 0.767857 0.750000
vt 0.625000 0.000000
vt 0.500000 1.000000
vt 0.625000 0.875000
vt 0.500000 0.750000
vt 0.500000 0.500000
vt 0.625000 0.375000
vt 0.500000 0.250000
vt 0.500000 0.500000
vt 0.660714 0.500000
vt 0.696429 0.500000
vt 0.443551 0.750000
vt 0.443551 0.500000
vt 0.500000 0.586216
vt 0.000000 0.000000
vt 0.443551 0.665063
vt 0.500000 0.665063
vt 0.375000 0.538270
vt 0.443551 0.250000
vt 0.612796 0.487796
vt 0.612796 0.262204
vt 0.443551 0.586216
vt 0.312500 0.293108
vt 0.612796 0.487796
vt 0.625000 0.586216
vt 0.612796 0.262204
vt 0.612796 0.987796
vt 0.625000 0.665063
vt 0.312500 0.332531
vt 0.258337 0.295829
vt 0.443551 1.000000
vt 0.375000 0.429423
vt 0.612796 0.762204
vt 0.375000 0.468870
vt 0.258337 0.452337
vt 0.375000 0.656610
vt 0.258337 0.198352
vt 0.375000 0.287927
vt 0.375000 0.113782
vt 0.803571 0.500000
vt 0.258337 0.078384
vt 0.258337 0.370813
vt 0.258337 0.323003
s 0
f 8/1/1 5/2/1 7/3/1
f 8/1/2 13/4/2 6/5/2
f 14/6/3 16/7/3 13/4/3
f 1/8/4 4/9/4 3/10/4
f 10/11/5 16/7/5 15/12/5
f 16/7/2 4/9/2 2/13/2
f 33/14/6 34/15/6 36/16/6
f 43/14/6 44/15/6 49/16/6
f 56/17/3 51/18/3 52/19/3
f 54/20/3 46/18/3 47/19/3
f 12/21/6 10/11/6 11/22/6
f 12/21/7 14/6/7 13/4/7
f 11/22/2 15/12/2 14/6/2
f 32/23/8 5/2/8 23/24/8
f 59/25/3 63/26/3 13/4/3
f 40/26/6 27/27/6 68/28/6
f 47/19/1 21/29/1 22/30/1
f 54/20/9 65/26/9 55/31/9
f 46/18/10 67/26/10 48/32/10
f 59/25/4 20/24/4 19/33/4
f 58/34/11 57/35/11 60/36/11
f 62/26/12 52/19/12 53/37/12
f 43/14/12 72/26/12 45/38/12
f 70/39/11 44/15/11 69/40/11
f 49/16/4 27/27/4 26/23/4
f 39/41/1 31/42/1 29/43/1
f 40/26/10 34/15/10 35/38/10
f 42/26/9 36/16/9 37/44/9
f 36/16/4 30/45/4 32/23/4
f 38/26/11 37/44/11 34/15/11
f 33/14/12 40/26/12 35/38/12
f 67/26/12 47/19/12 48/32/12
f 63/26/11 55/31/11 65/26/11
f 64/46/4 23/24/4 24/47/4
f 70/39/9 49/16/9 50/44/9
f 69/40/10 45/38/10 72/26/10
f 71/48/1 28/42/1 25/49/1
f 52/19/1 18/50/1 17/30/1
f 51/18/10 62/26/10 53/37/10
f 56/17/9 60/36/9 57/35/9
f 8/1/1 6/5/1 5/2/1
f 8/1/2 12/21/2 13/4/2
f 14/6/3 15/12/3 16/7/3
f 1/8/4 2/13/4 4/9/4
f 10/11/5 9/51/5 16/7/5
f 16/7/2 9/51/2 4/9/2
f 32/23/6 31/42/6 33/14/6
f 33/14/6 35/38/6 34/15/6
f 34/15/6 37/44/6 36/16/6
f 36/16/6 32/23/6 33/14/6
f 26/23/6 28/42/6 43/14/6
f 43/14/6 45/38/6 44/15/6
f 44/15/6 50/44/6 49/16/6
f 49/16/6 26/23/6 43/14/6
f 17/30/3 20/24/3 56/17/3
f 56/17/3 57/35/3 51/18/3
f 51/18/3 53/37/3 52/19/3
f 52/19/3 17/30/3 56/17/3
f 22/30/3 23/24/3 54/20/3
f 54/20/3 55/31/3 46/18/3
f 46/18/3 48/32/3 47/19/3
f 47/19/3 22/30/3 54/20/3
f 12/21/6 9/51/6 10/11/6
f 12/21/7 11/22/7 14/6/7
f 11/22/2 10/11/2 15/12/2
f 1/8/8 3/10/8 25/49/8
f 1/8/8 25/49/8 28/42/8
f 17/30/8 18/50/8 1/8/8
f 21/29/8 19/33/8 20/24/8
f 17/30/8 1/8/8 28/42/8
f 22/30/8 21/29/8 20/24/8
f 20/24/8 17/30/8 28/42/8
f 26/23/8 27/27/8 29/43/8
f 20/24/8 28/42/8 26/23/8
f 22/30/8 20/24/8 26/23/8
f 26/23/8 29/43/8 31/42/8
f 32/23/8 30/45/8 7/3/8
f 22/30/8 26/23/8 31/42/8
f 32/23/8 7/3/8 5/2/8
f 22/30/8 31/42/8 32/23/8
f 5/2/8 24/47/8 23/24/8
f 23/24/8 22/30/8 32/23/8
f 2/13/3 1/8/3 18/50/3
f 2/13/3 18/50/3 61/52/3
f 2/13/3 61/52/3 62/26/3
f 2/13/3 62/26/3 58/34/3
f 16/7/3 2/13/3 58/34/3
f 16/7/3 58/34/3 60/36/3
f 5/2/3 6/5/3 13/4/3
f 13/4/3 16/7/3 60/36/3
f 59/25/3 19/33/3 21/29/3
f 13/4/3 60/36/3 59/25/3
f 64/46/3 24/47/3 5/2/3
f 65/26/3 64/46/3 5/2/3
f 59/25/3 21/29/3 66/53/3
f 59/25/3 66/53/3 67/26/3
f 65/26/3 5/2/3 13/4/3
f 59/25/3 67/26/3 63/26/3
f 63/26/3 65/26/3 13/4/3
f 3/10/6 4/9/6 9/51/6
f 12/21/6 8/1/6 7/3/6
f 71/48/6 25/49/6 3/10/6
f 72/26/6 71/48/6 3/10/6
f 7/3/6 30/45/6 41/54/6
f 7/3/6 41/54/6 42/26/6
f 72/26/6 3/10/6 9/51/6
f 69/40/6 72/26/6 9/51/6
f 12/21/6 7/3/6 42/26/6
f 12/21/6 42/26/6 38/26/6
f 69/40/6 9/51/6 12/21/6
f 70/39/6 69/40/6 12/21/6
f 12/21/6 38/26/6 40/26/6
f 39/41/6 29/43/6 27/27/6
f 70/39/6 12/21/6 40/26/6
f 40/26/6 39/41/6 27/27/6
f 68/28/6 70/39/6 40/26/6
f 47/19/1 66/53/1 21/29/1
f 54/20/9 64/46/9 65/26/9
f 46/18/10 63/26/10 67/26/10
f 59/25/4 56/17/4 20/24/4
f 58/34/11 51/18/11 57/35/11
f 62/26/12 61/52/12 52/19/12
f 43/14/12 71/48/12 72/26/12
f 70/39/11 50/44/11 44/15/11
f 49/16/4 68/28/4 27/27/4
f 39/41/1 33/14/1 31/42/1
f 40/26/10 38/26/10 34/15/10
f 42/26/9 41/54/9 36/16/9
f 36/16/4 41/54/4 30/45/4
f 38/26/11 42/26/11 37/44/11
f 33/14/12 39/41/12 40/26/12
f 67/26/12 66/53/12 47/19/12
f 63/26/11 46/18/11 55/31/11
f 64/46/4 54/20/4 23/24/4
f 70/39/9 68/28/9 49/16/9
f 69/40/10 44/15/10 45/38/10
f 71/48/1 43/14/1 28/42/1
f 52/19/1 61/52/1 18/50/1
f 51/18/10 58/34/10 62/26/10
f 56/17/9 59/25/9 60/36/9
o Cube.002
v 1.770033 0.630000 -2.100000
v 2.463033 -0.063000 -2.100000
v 1.973008 0.139975 -2.100000
v 2.463033 1.323000 -2.100000
v 1.973008 1.120025 -2.100000
v 2.463033 -0.063000 -1.524351
v 1.770033 0.630000 -1.524351
v 1.973008 0.139975 -1.524351
v 2.463033 1.323000 -1.524351
v 1.973008 1.120025 -1.524351
v 3.156033 0.630000 -2.100000
v 2.953058 0.139975 -2.100000
v 2.953058 1.120025 -2.100000
v 3.156033 0.630000 -1.524351
v 2.953058 0.139975 -1.524351
v 2.953058 1.120025 -1.524351
vn -0.0000 -0.0000 -1.0000
vn -0.0000 -0.0000 1.0000
vn 0.9239 0.3827 -0.0000
vn 0.9239 -0.3827 -0.0000
vn 0.3827 -0.9239 -0.0000
vn -0.3827 -0.9239 -0.0000
vn -0.9239 -0.3827 -0.0000
vn -0.9239 0.3827 -0.0000
vn -0.3827 0.9239 -0.0000
vn 0.3827 0.9239 -0.0000
vt 0.612796 0.762204
vt 0.875000 0.750000
vt 0.375000 0.000000
vt 0.750000 0.500000
vt 0.500000 0.500000
vt 0.291667 0.458333
vt 0.612796 0.487796
vt 0.500000 0.750000
vt 0.387204 0.487796
vt 0.387204 0.762204
vt 0.291667 0.791667
vt 0.393306 0.268306
vt 0.500000 0.250000
vt 0.500000 0.000000
vt 0.708333 0.791667
vt 0.606694 0.268306
s 0
f 85/55/13 75/57/13 77/56/13
f 81/58/14 78/60/14 86/59/14
f 88/61/15 86/59/15 83/62/15
f 87/63/16 84/64/16 83/62/16
f 78/60/17 74/65/17 84/64/17
f 78/60/18 80/66/18 75/57/18
f 75/57/19 80/66/19 79/67/19
f 77/56/20 73/68/20 79/67/20
f 76/69/21 77/56/21 82/70/21
f 76/69/22 81/58/22 88/61/22
f 75/57/13 84/64/13 74/65/13
f 84/64/13 85/55/13 83/62/13
f 85/55/13 77/56/13 76/69/13
f 77/56/13 75/57/13 73/68/13
f 75/57/13 85/55/13 84/64/13
f 78/60/14 79/67/14 80/66/14
f 79/67/14 81/58/14 82/70/14
f 81/58/14 86/59/14 88/61/14
f 86/59/14 78/60/14 87/63/14
f 78/60/14 81/58/14 79/67/14
f 88/61/15 83/62/15 85/55/15
f 87/63/16 83/62/16 86/59/16
f 78/60/17 84/64/17 87/63/17
f 78/60/18 75/57/18 74/65/18
f 75/57/19 79/67/19 73/68/19
f 77/56/20 79/67/20 82/70/20
f 76/69/21 82/70/21 81/58/21
f 76/69/22 88/61/22 85/55/22
o Cube.005
v -3.251762 0.630000 -2.100000
v -2.558762 -0.063000 -2.100000
v -3.048787 0.139975 -2.100000
v -2.558762 1.323000 -2.100000
v -3.048787 1.120025 -2.100000
v -2.558762 -0.063000 -1.524351
v -3.251762 0.630000 -1.524351
v -3.048787 0.139975 -1.524351
v -2.558762 1.323000 -1.524351
v -3.048787 1.120025 -1.524351
v -1.865762 0.630000 -2.100000
v -2.068737 0.139975 -2.100000
v -2.068737 1.120025 -2.100000
v -1.865762 0.630000 -1.524351
v -2.068737 0.139975 -1.524351
v -2.068737 1.120025 -1.524351
vn -0.0000 -0.0000 -1.0000
vn -0.0000 -0.0000 1.0000
vn 0.9239 0.3827 -0.0000
vn 0.3827 0.9239 -0.0000
vn -0.3827 0.9239 -0.0000
vn -0.9239 0.3827 -0.0000
vn -0.9239 -0.3827 -0.0000
vn -0.3827 -0.9239 -0.0000
vn 0.3827 -0.9239 -0.0000
vn 0.9239 -0.3827 -0.0000
vt 0.612796 0.762204
vt 0.875000 0.750000
vt 0.375000 0.000000
vt 0.750000 0.500000
vt 0.500000 0.500000
vt 0.291667 0.458333
vt 0.612796 0.487796
vt 0.500000 0.750000
vt 0.708333 0.791667
vt 0.606694 0.268306
vt 0.500000 0.250000
vt 0.500000 0.000000
vt 0.393306 0.268306
vt 0.387204 0.762204
vt 0.291667 0.791667
vt 0.387204 0.487796
s 0
f 101/71/23 91/73/23 93/72/23
f 97/74/24 94/76/24 102/75/24
f 104/77/25 102/75/25 99/78/25
f 92/79/26 97/74/26 104/77/26
f 92/79/27 93/72/27 98/80/27
f 93/72/28 89/82/28 95/81/28
f 91/73/29 96/83/29 95/81/29
f 94/76/30 96/83/30 91/73/30
f 94/76/31 90/85/31 100/84/31
f 103/86/32 100/84/32 99/78/32
f 91/73/23 100/84/23 90/85/23
f 100/84/23 101/71/23 99/78/23
f 101/71/23 93/72/23 92/79/23
f 93/72/23 91/73/23 89/82/23
f 91/73/23 101/71/23 100/84/23
f 94/76/24 95/81/24 96/83/24
f 95/81/24 97/74/24 98/80/24
f 97/74/24 102/75/24 104/77/24
f 102/75/24 94/76/24 103/86/24
f 94/76/24 97/74/24 95/81/24
f 104/77/25 99/78/25 101/71/25
f 92/79/26 104/77/26 101/71/26
f 92/79/27 98/80/27 97/74/27
f 93/72/28 95/81/28 98/80/28
f 91/73/29 95/81/29 89/82/29
f 94/76/30 91/73/30 90/85/30
f 94/76/31 100/84/31 103/86/31
f 103/86/32 99/78/32 102/75/32
o Cube.003
v 1.770033 0.630000 1.517190
v 2.463033 -0.063000 1.517190
v 1.973008 0.139975 1.517190
v 2.463033 1.323000 1.517190
v 1.973008 1.120025 1.517190
v 2.463033 -0.063000 2.092839
v 1.770033 0.630000 2.092839
v 1.973008 0.139975 2.092839
v 2.463033 1.323000 2.092839
v 1.973008 1.120025 2.092839
v 3.156033 0.630000 1.517190
v 2.953058 0.139975 1.517190
v 2.953058 1.120025 1.517190
v 3.156033 0.630000 2.092839
v 2.953058 0.139975 2.092839
v 2.953058 1.120025 2.092839
vn -0.0000 -0.0000 -1.0000
vn -0.0000 -0.0000 1.0000
vn 0.9239 0.3827 -0.0000
vn 0.9239 -0.3827 -0.0000
vn 0.3827 -0.9239 -0.0000
vn -0.3827 -0.9239 -0.0000
vn -0.9239 -0.3827 -0.0000
vn -0.9239 0.3827 -0.0000
vn -0.3827 0.9239 -0.0000
vn 0.3827 0.9239 -0.0000
vt 0.612796 0.762204
vt 0.875000 0.750000
vt 0.375000 0.000000
vt 0.750000 0.500000
vt 0.500000 0.500000
vt 0.291667 0.458333
vt 0.612796 0.487796
vt 0.500000 0.750000
vt 0.387204 0.487796
vt 0.387204 0.762204
vt 0.291667 0.791667
vt 0.393306 0.268306
vt 0.500000 0.250000
vt 0.500000 0.000000
vt 0.708333 0.791667
vt 0.606694 0.268306
s 0
f 117/87/33 107/89/33 109/88/33
f 113/90/34 110/92/34 118/91/34
f 120/93/35 118/91/35 115/94/35
f 119/95/36 116/96/36 115/94/36
f 110/92/37 106/97/37 116/96/37
f 110/92/38 112/98/38 107/89/38
f 107/89/39 112/98/39 111/99/39
f 109/88/40 105/100/40 111/99/40
f 108/101/41 109/88/41 114/102/41
f 108/101/42 113/90/42 120/93/42
f 107/89/33 116/96/33 106/97/33
f 116/96/33 117/87/33 115/94/33
f 117/87/33 109/88/33 108/101/33
f 109/88/33 107/89/33 105/100/33
f 107/89/33 117/87/33 116/96/33
f 110/92/34 111/99/34 112/98/34
f 111/99/34 113/90/34 114/102/34
f 113/90/34 118/91/34 120/93/34
f 118/91/34 110/92/34 119/95/34
f 110/92/34 113/90/34 111/99/34
f 120/93/35 115/94/35 117/87/35
f 119/95/36 115/94/36 118/91/36
f 110/92/37 116/96/37 119/95/37
f 110/92/38 107/89/38 106/97/38
f 107/89/39 111/99/39 105/100/39
f 109/88/40 111/99/40 114/102/40
f 108/101/41 114/102/41 113/90/41
f 108/101/42 120/93/42 117/87/42
o Cube.004
v -3.251762 0.630000 1.517190
v -2.558762 -0.063000 1.517190
v -3.048787 0.139975 1.517190
v -2.558762 1.323000 1.517190
v -3.048787 1.120025 1.517190
v -2.558762 -0.063000 2.092839
v -3.251762 0.630000 2.092839
v -3.048787 0.139975 2.092839
v -2.558762 1.323000 2.092839
v -3.048787 1.120025 2.092839
v -1.865762 0.630000 1.517190
v -2.068737 0.139975 1.517190
v -2.068737 1.120025 1.517190
v -1.865762 0.630000 2.092839
v -2.068737 0.139975 2.092839
v -2.068737 1.120025 2.092839
vn -0.0000 -0.0000 -1.0000
vn -0.0000 -0.0000 1.0000
vn 0.9239 0.3827 -0.0000
vn 0.3827 0.9239 -0.0000
vn -0.3827 0.9239 -0.0000
vn -0.9239 0.3827 -0.0000
vn -0.9239 -0.3827 -0.0000
vn -0.3827 -0.9239 -0.0000
vn 0.3827 -0.9239 -0.0000
vn 0.9239 -0.3827 -0.0000
vt 0.612796 0.762204
vt 0.875000 0.750000
vt 0.375000 0.000000
vt 0.750000 0.500000
vt 0.500000 0.500000
vt 0.291667 0.458333
vt 0.612796 0.487796
vt 0.500000 0.750000
vt 0.708333 0.791667
vt 0.606694 0.268306
vt 0.500000 0.250000
vt 0.500000 0.000000
vt 0.393306 0.268306
vt 0.387204 0.762204
vt 0.291667 0.791667
vt 0.387204 0.487796
s 0
f 133/103/43 123/105/43 125/104/43
f 129/106/44 126/108/44 134/107/44
f 136/109/45 134/107/45 131/110/45
f 124/111/46 129/106/46 136/109/46
f 124/111/47 125/104/47 130/112/47
f 125/104/48 121/114/48 127/113/48
f 123/105/49 128/115/49 127/113/49
f 126/108/50 128/115/50 123/105/50
f 126/108/51 122/117/51 132/116/51
f 135/118/52 132/116/52 131/110/52
f 123/105/43 132/116/43 122/117/43
f 132/116/43 133/103/43 131/110/43
f 133/103/43 125/104/43 124/111/43
f 125/104/43 123/105/43 121/114/43
f 123/105/43 133/103/43 132/116/43
f 126/108/44 127/113/44 128/115/44
f 127/113/44 129/106/44 130/112/44
f 129/106/44 134/107/44 136/109/44
f 134/107/44 126/108/44 135/118/44
f 126/108/44 129/106/44 127/113/44
f 136/109/45 131/110/45 133/103/45
f 124/111/46 136/109/46 133/103/46
f 124/111/47 130/112/47 129/106/47
f 125/104/48 127/113/48 130/112/48
f 123/105/49 127/113/49 121/114/49
f 126/108/50 123/105/50 122/117/50
f 126/108/51 132/116/51 135/118/51
f 135/118/52 131/110/52 134/107/52
